<?xml version="1.0" encoding="UTF-8" standalone="no"?>
<!-- Created with Inkscape (http://www.inkscape.org/) -->
<svg
   xmlns:dc="http://purl.org/dc/elements/1.1/"
   xmlns:cc="http://creativecommons.org/ns#"
   xmlns:rdf="http://www.w3.org/1999/02/22-rdf-syntax-ns#"
   xmlns:svg="http://www.w3.org/2000/svg"
   xmlns="http://www.w3.org/2000/svg"
   xmlns:sodipodi="http://sodipodi.sourceforge.net/DTD/sodipodi-0.dtd"
   xmlns:inkscape="http://www.inkscape.org/namespaces/inkscape"
   width="504.74161"
   height="373.76105"
   id="svg2"
   sodipodi:version="0.32"
   inkscape:version="0.46"
   version="1.0"
   sodipodi:docname="ContinentAsia.svg"
   inkscape:output_extension="org.inkscape.output.svg.inkscape">
  <defs
     id="defs4">
    <inkscape:perspective
       sodipodi:type="inkscape:persp3d"
       inkscape:vp_x="0 : 526.18109 : 1"
       inkscape:vp_y="0 : 1000 : 0"
       inkscape:vp_z="744.09448 : 526.18109 : 1"
       inkscape:persp3d-origin="372.04724 : 350.78739 : 1"
       id="perspective10" />
    <inkscape:perspective
       id="perspective2390"
       inkscape:persp3d-origin="372.04724 : 350.78739 : 1"
       inkscape:vp_z="744.09448 : 526.18109 : 1"
       inkscape:vp_y="0 : 1000 : 0"
       inkscape:vp_x="0 : 526.18109 : 1"
       sodipodi:type="inkscape:persp3d" />
    <inkscape:perspective
       id="perspective2589"
       inkscape:persp3d-origin="372.04724 : 350.78739 : 1"
       inkscape:vp_z="744.09448 : 526.18109 : 1"
       inkscape:vp_y="0 : 1000 : 0"
       inkscape:vp_x="0 : 526.18109 : 1"
       sodipodi:type="inkscape:persp3d" />
    <inkscape:perspective
       id="perspective2624"
       inkscape:persp3d-origin="372.04724 : 350.78739 : 1"
       inkscape:vp_z="744.09448 : 526.18109 : 1"
       inkscape:vp_y="0 : 1000 : 0"
       inkscape:vp_x="0 : 526.18109 : 1"
       sodipodi:type="inkscape:persp3d" />
  </defs>
  <sodipodi:namedview
     id="base"
     pagecolor="#ffffff"
     bordercolor="#666666"
     borderopacity="1.0"
     inkscape:pageopacity="0.0"
     inkscape:pageshadow="2"
     inkscape:zoom="1.8684589"
     inkscape:cx="153.30342"
     inkscape:cy="183.57374"
     inkscape:document-units="px"
     inkscape:current-layer="layer1"
     showgrid="false"
     inkscape:window-width="1280"
     inkscape:window-height="781"
     inkscape:window-x="-4"
     inkscape:window-y="-4" />
  <metadata
     id="metadata7">
    <rdf:RDF>
      <cc:Work
         rdf:about="">
        <dc:format>image/svg+xml</dc:format>
        <dc:type
           rdf:resource="http://purl.org/dc/dcmitype/StillImage" />
      </cc:Work>
    </rdf:RDF>
  </metadata>
  <g
     inkscape:label="Ebene 1"
     inkscape:groupmode="layer"
     id="layer1"
     transform="translate(-161.22816,-55.126065)">
    <path
       style="fill:#000000"
       d=""
       id="path2396" />
    <path
       style="fill:#f63a02"
       d="M 530.94941,427.83668 C 527.37441,427.34105 522.33387,426.2414 519.74822,425.39301 C 517.16256,424.54463 514.14494,424.1368 513.04238,424.48674 C 510.43711,425.31362 502.89819,423.04634 502.1996,421.22585 C 501.90171,420.44955 502.28605,419.39412 503.05369,418.88045 C 504.8501,417.67837 511.79934,418.6919 514.67801,420.57582 C 516.46696,421.74658 517.83623,421.82598 521.61881,420.97829 C 525.78441,420.04476 526.65217,420.1597 529.09972,421.96926 C 530.62251,423.0951 532.35899,424.01625 532.95858,424.01625 C 535.06002,424.01625 540.00887,427.11102 539.42309,428.05884 C 539.09765,428.58541 538.52043,428.9536 538.14039,428.87704 C 537.76035,428.80047 534.52441,428.33231 530.94941,427.83668 z M 490.34011,410.26625 C 487.83503,407.65375 484.65659,403.04883 483.27691,400.03309 C 481.89723,397.01736 478.78413,391.91027 476.35891,388.68401 C 473.93368,385.45775 471.94941,382.40132 471.94941,381.89194 C 471.94941,381.38256 469.24941,378.0635 465.94941,374.51625 C 460.05787,368.18328 459.32127,366.97773 460.57643,365.72257 C 462.25287,364.04613 474.36999,371.61529 475.44821,375.01248 C 475.76569,376.01275 479.38333,379.3585 483.48742,382.44749 C 488.00017,385.84405 490.94941,388.78628 490.94941,389.89173 C 490.94941,390.89707 492.18691,393.12362 493.69941,394.83962 C 502.73374,405.08946 504.21605,408.43417 501.53659,412.52354 C 498.96853,416.4429 495.61438,415.76668 490.34011,410.26625 z M 538.62818,405.36168 C 538.26817,405.00167 534.99483,404.57175 531.35409,404.40631 C 521.18903,403.94438 519.85139,402.46688 516.41924,387.91001 C 515.6307,384.56553 517.95351,382.10321 521.29454,382.74189 C 523.16395,383.09925 523.91634,382.69579 524.43645,381.05708 C 524.81258,379.872 526.66344,378.16653 528.54948,377.26714 C 530.43552,376.36775 532.84719,374.1598 533.90876,372.36058 C 534.97032,370.56136 537.37185,368.44876 539.24549,367.6659 C 541.11912,366.88305 543.64963,364.84162 544.86885,363.12939 C 547.60016,359.29362 548.83361,359.24217 552.26232,362.82097 C 555.47622,366.17556 555.5821,367.39645 552.94941,370.74338 C 550.41588,373.96424 550.44089,375.27897 553.13839,380.6802 L 555.32737,385.06321 L 553.13839,386.59644 C 551.93445,387.43971 550.94941,388.73874 550.94941,389.48317 C 550.94941,391.11915 545.68061,402.43028 543.94369,404.52314 C 542.6666,406.06195 539.78329,406.5168 538.62818,405.36168 z M 487.8947,379.47589 C 483.87476,376.51007 481.18524,371.69858 479.25309,364.01625 C 478.16193,359.67773 476.9384,357.67154 473.45927,354.51625 L 469.04874,350.51625 L 470.03727,342.01625 C 470.92873,334.3509 470.83447,333.17257 469.07733,330.01625 C 468.00568,328.09125 466.39252,323.96644 465.49253,320.85001 C 463.29451,313.23882 462.13959,312.42483 457.93735,315.52515 C 454.79736,317.84176 454.47075,317.89304 452.75368,316.33911 C 451.68658,315.3734 451.15549,313.9423 451.4822,312.91292 C 452.35534,310.16192 446.56665,299.77164 443.08944,297.84851 C 441.43094,296.93125 439.16513,294.39925 438.0543,292.22184 C 435.97001,288.1363 433.61672,286.48579 431.62816,287.71479 C 431.00074,288.10256 427.77885,289.12559 424.46841,289.9882 C 419.10546,291.38562 418.41469,291.85649 418.13088,294.30826 C 417.93808,295.97377 416.75389,297.7354 415.13088,298.77111 C 413.65607,299.71225 410.09687,302.96492 407.22153,305.99926 C 404.3462,309.0336 401.4212,312.11389 400.72153,312.84434 C 400.02187,313.5748 397.71536,315.60383 395.59596,317.3533 C 391.78254,320.50113 391.7541,320.57721 392.85826,324.67775 C 393.62864,327.53873 393.66066,329.64551 392.96171,331.48389 C 392.40495,332.9483 391.94941,335.84 391.94941,337.90991 C 391.94941,341.79155 387.25134,350.30268 384.53288,351.34585 C 382.38505,352.17005 379.17036,349.29872 378.42097,345.88675 C 378.04322,344.16689 376.03337,339.10494 373.95464,334.63799 C 361.36748,307.58967 359.27477,301.84035 360.39376,297.38196 C 361.20555,294.14752 360.04032,290.01625 358.31625,290.01625 C 357.53726,290.01625 356.47218,291.14125 355.94941,292.51625 C 354.83811,295.4392 351.56503,295.83617 348.17192,293.45955 C 345.91368,291.87782 345.12636,289.01625 346.94941,289.01625 C 347.49941,289.01625 347.94941,288.34125 347.94941,287.51625 C 347.94941,286.69125 347.13064,286.01625 346.12991,286.01625 C 345.12919,286.01625 341.71049,283.55771 338.53281,280.55282 C 332.20949,274.57335 329.94759,273.42764 327.23718,274.8313 C 325.19436,275.88924 303.42282,275.61473 299.82885,274.48571 C 298.52016,274.0746 296.09941,272.19317 294.44941,270.30477 C 291.4678,266.89235 291.42182,266.87874 286.94934,268.08434 C 282.71162,269.22665 282.09587,269.11897 276.38757,266.23743 C 271.45506,263.74751 269.9773,262.4045 268.45468,259.02794 C 266.24384,254.12517 261.67454,251.16956 259.32298,253.12118 C 255.86028,255.99496 255.96074,257.51566 260.00713,263.47763 C 262.17538,266.67234 263.94941,270.03945 263.94941,270.96009 C 263.94941,271.88074 264.597,273.5075 265.38851,274.57512 C 266.62779,276.24674 267.11939,276.33799 268.92918,275.23237 C 271.39053,273.72871 272.94941,274.39583 272.94941,276.95282 C 272.94941,282.58956 280.39624,281.95699 286.68386,275.78615 C 290.38813,272.15069 290.94941,271.87964 290.94941,273.72625 C 290.94941,277.26898 292.04088,279.01222 295.32059,280.70768 C 299.74017,282.99241 305.94941,288.13422 305.94941,289.5093 C 305.94941,290.14638 304.78062,291.75856 303.35209,293.09194 C 301.92357,294.42531 299.86756,297.2466 298.78319,299.36146 C 296.14853,304.49991 288.51201,312.01625 285.92607,312.01625 C 282.93758,312.01625 278.49145,314.54005 276.72173,317.24099 C 275.88315,318.52082 273.67882,320.32588 271.82323,321.25224 C 262.31848,325.99722 250.87478,330.80767 247.65425,331.41184 C 244.211,332.0578 243.93212,331.90155 242.10789,328.30413 C 241.05144,326.22079 239.85292,322.04125 239.44452,319.01625 C 238.91334,315.08193 237.88318,312.58117 235.82569,310.23145 C 234.24373,308.42482 232.94941,306.51283 232.94941,305.9826 C 232.94941,305.45237 231.14484,303.15905 228.93925,300.88634 C 226.19234,298.05585 224.41736,294.98409 223.30466,291.13519 C 222.41122,288.04478 220.58652,284.16625 219.24976,282.51625 C 211.13134,272.49543 206.83565,266.3951 206.29222,264.1152 C 205.95151,262.68578 205.22985,260.65529 204.68852,259.603 C 203.73867,257.75655 203.64511,257.7682 202.0094,259.93672 L 200.3145,262.18369 L 197.56728,258.5819 C 194.18382,254.14595 194.2583,249.68527 197.72404,249.19347 C 198.97509,249.01594 200.60401,247.89094 201.34386,246.69347 C 202.88916,244.19233 204.87667,234.60822 205.21705,228.01625 C 205.44458,223.60974 205.38708,223.51855 202.44941,223.62684 C 200.79941,223.68767 197.9886,224.34819 196.20316,225.09466 C 193.35532,226.28532 192.60001,226.24107 190.04887,224.73407 C 186.76892,222.79656 183.83723,222.52843 182.33691,224.02875 C 179.38061,226.98505 169.94941,220.69595 169.94941,215.76827 C 169.94941,214.61627 169.23033,212.87915 168.35145,211.908 C 166.31174,209.65415 167.49012,207.68416 170.43578,208.42347 C 172.02941,208.82345 173.8286,208.099 176.48555,205.98753 C 178.92671,204.04754 180.9251,203.19115 182.12342,203.57148 C 183.19077,203.91024 185.48756,203.22874 187.52753,201.96797 C 190.48457,200.14042 191.92162,199.88756 196.15746,200.44946 C 198.95261,200.82025 202.86178,201.93561 204.84448,202.92804 C 212.91267,206.9665 220.10736,206.64527 222.30812,202.14834 C 224.36651,197.94232 223.27487,196.336 215.40633,191.99247 C 211.33128,189.74299 207.74912,187.50119 207.44597,187.01068 C 206.49343,185.46943 209.05741,177.25842 211.54342,173.88883 C 213.87938,170.72261 213.89106,170.60111 212.14639,167.61382 C 211.09641,165.81601 209.1546,164.25657 207.40834,163.80875 C 205.78093,163.39142 202.54755,162.57789 200.22305,162.00093 C 197.83046,161.40706 193.98331,159.20933 191.35637,156.93573 C 187.74341,153.80873 186.03478,152.98561 183.63892,153.21791 C 180.73674,153.49929 180.55379,153.31077 180.4213,149.9024 C 180.34403,147.91478 179.30616,144.71152 178.11492,142.78404 C 176.33745,139.90805 175.18866,139.17755 171.70943,138.71089 C 166.61495,138.02758 164.47443,135.70101 163.53496,129.8259 C 162.94178,126.11635 163.15322,125.26964 165.05786,123.72735 C 166.68864,122.40682 166.97577,121.64261 166.15099,120.81784 C 165.32622,119.99307 165.8095,118.71811 167.99091,115.96385 C 170.92385,112.26072 171.85044,109.01625 169.97509,109.01625 C 168.57162,109.01625 165.94941,103.55039 165.94941,100.62493 C 165.94941,99.255075 165.49941,97.856175 164.94941,97.516255 C 164.39941,97.176335 163.94941,95.497715 163.94941,93.785975 C 163.94941,92.074245 163.21983,89.867565 162.32813,88.882235 C 160.26993,86.607955 161.14983,84.270755 164.5511,82.977585 C 166.6619,82.175065 167.89553,82.376925 170.58777,83.965385 C 172.75836,85.246065 174.95347,85.767595 176.71046,85.420035 C 179.87913,84.793235 195.67464,89.440665 197.94941,91.669065 C 199.28095,92.973465 199.23141,93.300085 197.50828,94.577375 C 195.27211,96.234955 188.69209,96.484095 185.94726,95.015105 C 183.17756,93.532805 174.74479,93.292185 174.25234,94.681395 C 174.02518,95.322225 174.76902,96.141615 175.90533,96.502265 C 177.04164,96.862915 178.65068,98.471685 179.48098,100.07731 C 181.50074,103.98308 188.24195,107.46524 190.96363,106.00864 C 192.05581,105.42412 192.94941,104.56796 192.94941,104.10606 C 192.94941,103.64417 194.18691,103.01591 195.69941,102.70994 C 197.26142,102.39395 198.88141,101.16326 199.44941,99.861105 C 200.11905,98.325945 201.77085,97.264515 204.44941,96.648175 C 209.09282,95.579735 209.81859,94.782765 209.1818,91.451605 C 208.55674,88.181795 210.91598,88.242505 213.80981,91.570715 C 216.30646,94.442115 217.79217,94.287445 224.44941,90.463095 C 229.56303,87.525495 235.49154,86.391365 237.41017,87.983685 C 239.17669,89.449765 252.76312,87.670375 257.44941,85.359175 C 260.16794,84.018455 261.2469,84.079295 268.94941,86.007705 C 273.62441,87.178145 278.46191,88.386345 279.69941,88.692595 C 283.34633,89.595105 282.67163,85.558045 278.91552,84.002215 C 274.50459,82.175145 271.71733,78.318425 273.03222,75.861512 C 274.31957,73.456083 278.64735,71.723623 281.54939,72.45199 C 282.74731,72.75265 286.45907,76.660355 289.79774,81.135775 C 295.82833,89.219655 295.85795,89.292445 294.32363,92.259475 C 292.26167,96.246875 293.72359,97.701505 297.71734,95.636265 C 303.1983,92.801945 302.8017,86.542595 296.94941,83.516255 C 291.60699,80.753585 290.512,75.187686 295.56018,76.454695 C 298.07748,77.086505 303.2036,74.795488 308.23569,70.789633 C 310.1264,69.284509 312.53704,68.52424 315.73569,68.424285 C 322.16022,68.223525 321.94941,68.321538 321.94941,65.535305 C 321.94941,63.771267 322.59958,62.915743 324.19941,62.574669 C 334.25097,60.431726 338.79361,59.915761 342.59284,60.48549 C 346.51296,61.073349 347.4236,60.808744 350.86747,58.081149 C 355.25236,54.608252 358.61316,54.243772 363.24907,56.738361 C 365.61118,58.009419 368.93763,58.473034 375.94941,58.50844 C 389.70432,58.577895 393.81665,61.714771 385.94941,66.136409 C 379.3076,69.869314 380.93376,71.636343 389.02984,69.483692 C 393.76463,68.224767 395.09138,68.227865 399.53016,69.508207 C 403.21141,70.570039 405.53293,70.70929 407.95818,70.013737 C 410.38598,69.317453 412.91476,69.470771 417.1641,70.571883 C 421.6118,71.724399 423.91703,71.841642 426.73608,71.05871 C 433.16928,69.272018 441.08371,69.776634 445.67525,72.266253 C 447.95754,73.503753 452.16634,75.793485 455.02814,77.354545 C 460.10101,80.121715 460.32185,80.152295 463.84041,78.574875 C 466.77273,77.260265 468.43506,77.145355 472.7063,77.962005 C 478.26216,79.024255 482.94941,77.887665 482.94941,75.478183 C 482.94941,72.357366 485.81871,71.667426 493.74206,72.883027 C 497.9811,73.53338 503.02441,74.19161 504.94941,74.34576 C 506.87441,74.49991 510.6354,75.609977 513.30716,76.812575 C 517.38173,78.646595 520.45645,79.062065 532.3783,79.389515 C 543.69046,79.700215 547.29158,80.152905 550.02055,81.607295 C 552.79051,83.083525 555.94751,83.459035 566.44941,83.561415 C 575.96366,83.654175 580.45492,84.120665 583.19941,85.301175 C 585.26191,86.188345 587.01795,86.599665 587.10172,86.215225 C 587.1855,85.830795 587.30837,84.841255 587.37477,84.016255 C 587.46895,82.846225 588.70031,82.572065 592.97246,82.769975 C 601.3381,83.157525 617.91302,86.053905 622.94941,88.008285 C 625.42441,88.968715 630.14158,90.083865 633.432,90.486405 C 636.72243,90.888935 641.52369,92.287055 644.10149,93.593315 C 648.01412,95.575995 649.28557,95.795025 651.79802,94.919185 C 655.23375,93.721485 657.46273,94.583955 662.7096,99.141295 L 665.96978,101.97303 L 663.50768,102.59098 C 662.13723,102.93494 658.69652,102.41926 655.7475,101.4279 C 652.83355,100.44834 649.77441,99.548685 648.94941,99.428665 C 648.12441,99.308645 645.92284,98.729785 644.05704,98.142325 C 640.37771,96.983855 638.94941,97.365115 638.94941,99.505715 C 638.94941,100.26 637.93691,101.02094 636.69941,101.1967 C 632.7235,101.76137 634.50431,103.43892 642.55372,106.71155 C 651.07175,110.1747 652.95099,112.01625 647.967,112.01625 C 643.93918,112.01625 641.11667,113.5134 637.80411,117.40697 C 635.31203,120.33615 634.97168,120.44613 631.9283,119.30563 C 629.33792,118.33489 628.17782,118.36056 626.0736,119.43519 C 624.6303,120.17229 621.9565,121.09701 620.13184,121.49011 C 618.30718,121.88321 616.55988,122.86777 616.24896,123.67801 C 615.27781,126.2088 618.0947,129.90817 622.68494,132.13027 C 625.44978,133.46871 627.44691,135.24326 628.04195,136.89027 C 628.56375,138.33456 629.47733,140.4725 630.07213,141.64125 C 630.84036,143.15079 630.84457,144.34363 630.08668,145.75977 C 629.49988,146.8562 629.17129,147.92495 629.35646,148.13477 C 629.54164,148.34458 630.00388,150.6571 630.38367,153.2737 C 631.66729,162.11743 628.60123,160.5247 611.97945,143.71327 C 605.14356,136.79937 604.34631,134.98118 605.86846,129.77656 C 609.4644,117.48103 609.40475,117.91858 607.86128,115.15952 C 606.4823,112.69452 602.04353,110.869 601.8729,112.6967 C 601.37347,118.04633 600.50839,118.77766 597.07731,116.75087 C 595.53149,115.83774 592.40545,114.793 590.13055,114.42923 C 586.29504,113.8159 585.92003,113.96332 584.97189,116.45714 C 584.40952,117.93626 583.94941,120.45858 583.94941,122.0623 C 583.94941,125.82764 580.87187,126.71746 575.54577,124.49207 C 573.05437,123.45109 570.73183,123.13616 569.05738,123.61224 C 567.623,124.02007 562.77324,124.39032 558.28014,124.435 C 548.2676,124.53458 546.15908,126.07328 543.40011,135.29371 C 542.37605,138.71611 541.38746,142.00218 541.20324,142.59609 C 540.76556,144.00716 548.12193,147.3041 551.67854,147.29086 C 553.20252,147.28519 555.35618,146.97124 556.46446,146.59321 C 559.17794,145.66764 567.4537,152.12426 570.03221,157.17855 C 571.09026,159.25251 572.83919,161.42208 573.91871,161.99982 C 578.00328,164.18582 578.83298,178.5285 575.41731,187.90542 C 573.11089,194.23716 570.38275,196.5117 566.75092,195.13088 C 563.84188,194.02487 563.00071,194.50457 560.81459,198.51625 C 559.70224,200.55749 559.44793,202.22363 560.01884,203.72966 C 560.68427,205.48505 560.33318,206.35581 558.32223,207.93763 C 556.92762,209.03463 555.93571,210.60652 556.11799,211.43071 C 556.30027,212.25491 558.91182,214.64423 561.92142,216.74033 C 566.88414,220.1967 571.94941,225.97444 571.94941,228.17883 C 571.94941,229.26405 565.90484,233.00747 564.14438,233.01251 C 563.42662,233.01457 561.76997,230.59818 560.46294,227.64276 C 557.97159,222.00937 553.96939,218.01625 550.81455,218.01625 C 549.78872,218.01625 548.89316,217.56625 548.82441,217.01625 C 548.75566,216.46625 548.58691,215.56625 548.44941,215.01625 C 548.31191,214.46625 548.14316,213.57781 548.07441,213.04193 C 548.00566,212.50605 546.56512,211.35177 544.87321,210.47685 C 542.07874,209.03177 541.57826,209.02942 539.4084,210.45117 C 535.78054,212.82823 534.09956,212.37501 533.16483,208.76778 C 531.97486,204.17554 529.3435,204.05646 525.35128,208.41421 C 523.53633,210.39533 521.54714,212.01625 520.93084,212.01625 C 520.31455,212.01625 519.95411,213.02199 520.12986,214.25122 C 520.58585,217.4405 528.5312,221.75852 531.04963,220.18573 C 532.9081,219.0251 538.59109,219.62745 539.48895,221.08023 C 539.76281,221.52334 538.4472,223.06026 536.56538,224.4956 C 531.65134,228.24371 531.02664,231.74332 534.75127,234.65829 C 536.36165,235.91859 538.23749,238.29751 538.9198,239.94477 C 539.60212,241.59203 541.72403,244.13244 543.63516,245.59013 C 546.42335,247.71679 546.99073,248.71547 546.50662,250.64435 C 546.022,252.57521 546.39974,253.23697 548.42635,254.00748 C 549.81403,254.53508 550.94941,255.34948 550.94941,255.81725 C 550.94941,256.28503 549.68747,261.16298 548.14509,266.65715 C 544.57073,279.38951 541.17302,283.9375 533.01231,286.91304 C 529.83978,288.06981 526.03042,289.01625 524.54708,289.01625 C 521.29812,289.01625 517.13018,291.05403 514.55177,293.90314 L 512.65886,295.99479 L 510.26136,293.40784 C 508.38325,291.38133 507.27738,290.96016 505.15664,291.4637 C 501.34584,292.36854 497.68763,295.20971 496.06346,298.526 C 494.83726,301.02967 494.89113,301.75256 496.53077,304.79718 C 497.55007,306.68991 500.34687,309.84689 502.74588,311.8127 C 507.76585,315.92619 512.43397,324.39624 513.46301,331.25836 C 514.10704,335.55304 513.9343,336.13161 511.30626,338.48201 C 509.73499,339.88729 506.49592,342.85622 504.10832,345.07963 C 499.2369,349.61606 497.44941,349.70977 497.44941,345.42873 C 497.44941,343.07777 496.96741,342.45189 494.94941,342.18242 C 493.57441,341.99882 490.61543,339.97382 488.3739,337.68242 C 479.0291,328.12974 473.15895,325.98919 474.39643,332.58554 C 474.73589,334.39504 474.48784,337.96368 473.84519,340.51586 C 472.78966,344.70775 472.87892,345.42963 474.76885,347.9859 C 475.9195,349.54224 477.14484,351.94673 477.49182,353.32921 C 477.84304,354.72858 480.72024,357.92622 483.9825,360.54279 C 488.9847,364.55492 490.14284,366.13272 491.89585,371.32368 C 495.49791,381.98994 494.38254,384.26246 487.8947,379.47589 z M 270.87789,224.55324 C 272.43393,223.74858 273.98618,222.36282 274.32734,221.47377 C 275.2486,219.07301 273.95171,214.88524 271.29732,211.68952 C 268.33106,208.11835 268.35307,207.38274 271.44941,206.60561 C 272.82441,206.2605 273.94941,205.52089 273.94941,204.96201 C 273.94941,202.92185 270.67225,199.01625 268.96035,199.01625 C 266.38121,199.01625 258.08393,194.13611 256.89914,191.92233 C 256.19928,190.61461 256.21307,189.39211 256.94309,188.02806 C 258.06229,185.93682 262.1441,184.40051 263.82348,185.43842 C 265.40589,186.41641 266.1393,184.23958 264.96601,182.04727 C 263.36418,179.05422 258.30986,176.77817 254.91901,177.52293 C 251.71808,178.22597 242.49437,185.15374 241.57726,187.54367 C 241.24461,188.41054 241.84718,189.80452 242.97021,190.76608 C 244.05877,191.69814 244.94941,193.0207 244.94941,193.70511 C 244.94941,194.38952 246.91167,197.15888 249.30998,199.85926 C 254.16596,205.32683 255.54768,209.02985 253.88858,212.12991 C 251.76891,216.09054 253.54785,218.78222 260.71726,222.46228 C 264.41994,224.36286 267.58426,225.94002 267.74907,225.96707 C 267.91388,225.99412 269.32185,225.35789 270.87789,224.55324 z M 580.27826,363.20905 C 579.67102,362.82801 578.45902,360.7987 577.58493,358.69947 C 576.31569,355.65127 575.53793,354.94649 573.72254,355.19947 C 572.22786,355.40777 571.44941,355.00257 571.44941,354.01625 C 571.44941,352.95308 572.35773,352.58499 574.56845,352.75229 C 576.73103,352.91596 578.51006,352.226 580.36997,350.50229 C 583.77175,347.34963 584.4642,347.38353 585.76104,350.76625 C 588.19462,357.11409 588.23021,358.13006 586.03907,358.70305 C 584.88976,359.00361 583.94941,359.81693 583.94941,360.51044 C 583.94941,362.29843 581.59047,364.03245 580.27826,363.20905 z M 396.17757,361.15726 C 394.33124,360.01616 394.0281,349.51625 395.84149,349.51625 C 397.66675,349.51625 400.8458,353.88752 401.18328,356.86135 C 401.48661,359.53423 398.16451,362.38526 396.17757,361.15726 z M 549.94941,349.24409 C 549.94941,348.81941 551.35803,346.76303 553.07969,344.67437 C 557.21372,339.65907 559.3831,341.27003 555.44613,346.43166 C 552.97764,349.66802 549.94941,351.21743 549.94941,349.24409 z M 570.45949,347.03256 C 569.72194,345.83919 570.65806,344.01625 572.00843,344.01625 C 573.22523,344.01625 573.23312,346.72287 572.01851,347.47354 C 571.50651,347.78998 570.80495,347.59153 570.45949,347.03256 z M 567.10391,339.46428 C 567.29393,338.48402 568.05489,337.48037 568.79491,337.23395 C 569.65554,336.94737 570.01591,337.4282 569.79491,338.56822 C 569.60489,339.54848 568.84393,340.55213 568.10391,340.79855 C 567.24328,341.08513 566.88291,340.6043 567.10391,339.46428 z M 579.14941,337.81625 C 577.52674,336.19358 577.63809,335.01625 579.41423,335.01625 C 580.21988,335.01625 581.36071,335.91625 581.94941,337.01625 C 582.77136,338.55208 582.7099,339.01625 581.68459,339.01625 C 580.95024,339.01625 579.80941,338.47625 579.14941,337.81625 z M 561.22092,325.03898 C 556.28705,319.78914 555.43742,317.84142 556.89401,315.11976 C 557.47448,314.03515 557.94941,311.81629 557.94941,310.18898 C 557.94941,304.83467 561.69389,305.64644 564.80768,311.67579 C 565.66358,313.3331 565.57873,314.65917 564.44283,317.37776 C 563.04159,320.7314 563.08623,321.06379 565.2806,323.61489 C 566.7407,325.31236 568.67638,326.34783 570.51115,326.41292 C 572.26511,326.47514 573.54013,327.12202 573.71617,328.03898 C 573.94108,329.21045 573.02388,329.5617 569.73998,329.5617 C 565.97101,329.5617 564.97399,329.03239 561.22092,325.03898 z M 508.25555,304.37164 C 507.53659,302.49807 510.32019,300.01625 513.14054,300.01625 C 515.18783,300.01625 515.42451,301.26001 513.91423,304.08199 C 512.64996,306.44429 509.12023,306.62496 508.25555,304.37164 z M 552.40738,285.59245 C 550.95636,283.37792 550.95659,282.90304 552.41001,280.09245 C 555.44098,274.23119 558.78062,277.21567 556.92057,284.12334 C 555.70767,288.6277 554.62671,288.97957 552.40738,285.59245 z M 581.19941,243.40107 C 578.62891,239.37567 578.39132,238.01625 580.25828,238.01625 C 582.70065,238.01625 585.0056,240.51998 585.22794,243.41448 C 585.54285,247.51432 583.82235,247.5086 581.19941,243.40107 z M 589.12229,238.35706 C 589.54374,236.16865 592.44941,235.85905 592.44941,238.00255 C 592.44941,238.82002 591.62104,239.64839 590.6086,239.84337 C 589.2722,240.10073 588.86493,239.69346 589.12229,238.35706 z M 596.85511,234.40263 C 595.52298,232.7975 590.24042,232.88292 584.19941,234.60727 C 581.07372,235.49947 581.31887,233.47859 584.69941,230.48552 C 586.65303,228.75582 588.19959,228.20339 590.03989,228.5779 C 592.0034,228.97749 593.93267,228.12655 598.01127,225.06195 C 605.83317,219.18468 606.60136,217.23633 603.5055,211.12693 C 601.47011,207.1103 601.25636,206.00639 602.33986,205.10717 C 605.03936,202.86679 612.74598,211.77684 611.32088,215.49061 C 610.98297,216.37119 611.46446,219.07637 612.39087,221.50214 C 613.7018,224.93476 613.8261,226.37813 612.95153,228.0123 C 611.71129,230.3297 608.11741,232.01625 604.41949,232.01625 C 603.04323,232.01625 601.56328,232.86923 600.94941,234.01625 C 599.65337,236.43792 598.62481,236.53498 596.85511,234.40263 z M 192.94941,231.20621 C 192.94941,230.68002 193.87511,230.00744 195.00652,229.71157 C 196.31509,229.36937 196.92172,229.59983 196.67365,230.34494 C 196.19478,231.78327 192.94941,232.5338 192.94941,231.20621 z M 596.38343,197.60939 C 596.05119,196.28562 596.23621,194.34887 596.7946,193.30551 C 597.4208,192.13545 597.45925,190.85432 596.89495,189.96237 C 596.39175,189.167 595.97314,188.17875 595.96472,187.76625 C 595.93767,186.44136 598.66304,186.96627 599.96665,188.53703 C 600.66082,189.37345 603.17732,190.54845 605.55886,191.14813 C 611.23948,192.57852 612.54716,194.16532 609.9685,196.49897 C 608.51701,197.81255 607.0486,198.13175 604.41978,197.70515 C 601.8218,197.28356 600.69331,197.52007 600.29016,198.57064 C 599.41792,200.84366 597.04888,200.26076 596.38343,197.60939 z M 590.64254,179.22965 C 589.75327,178.24702 588.37188,175.87828 587.57279,173.96578 C 586.7737,172.05329 584.50654,168.1431 582.53465,165.27649 C 580.56277,162.40988 578.94941,159.79982 578.94941,159.47637 C 578.94941,158.57371 586.79492,163.18806 588.54143,165.11793 C 589.83387,166.54606 589.87474,167.16295 588.79183,168.89697 C 587.63328,170.75211 587.88812,171.36915 591.22353,174.78493 C 593.27276,176.88353 594.94941,179.1441 594.94941,179.80841 C 594.94941,181.60144 592.48986,181.27093 590.64254,179.22965 z M 572.95023,154.29017 C 571.43604,152.36519 571.17253,151.44188 572.0535,151.14822 C 573.29952,150.73288 576.94941,154.44458 576.94941,156.12703 C 576.94941,157.84903 575.07096,156.98624 572.95023,154.29017 z"
       id="path2630" />
  </g>
</svg>
